<svg version="1.1" viewBox="0.0 0.0 192.36745406824147 192.06299212598427" fill="none" stroke="none" stroke-linecap="square" stroke-miterlimit="10" xmlns:xlink="http://www.w3.org/1999/xlink" xmlns="http://www.w3.org/2000/svg"><clipPath id="p.0"><path d="m0 0l192.36745 0l0 192.06299l-192.36745 0l0 -192.06299z" clip-rule="nonzero"/></clipPath><g clip-path="url(#p.0)"><path fill="#000000" fill-opacity="0.0" d="m0 0l192.36745 0l0 192.06299l-192.36745 0z" fill-rule="evenodd"/><path fill="#000000" fill-opacity="0.0" d="m18.608923 35.92126l155.14961 0l0 120.220474l-155.14961 0z" fill-rule="evenodd"/><path fill="#000000" d="m135.60359 51.286495q-0.890625 12.15625 -0.890625 21.765621q0 6.015625 0.375 9.71875l-2.9375 0q-3.078125 -15.734375 -8.390617 -22.140621q-5.296875 -6.40625 -14.515625 -6.40625l-2.953125 0l0 73.09375q0 5.3750076 1.09375 7.8125076q1.09375 2.421875 3.84375 3.265625q2.75 0.828125 8.765625 0.953125l0 2.5625q-16.125 -0.390625 -24.328125 -0.390625q-8.0625 0 -23.421875 0.390625l0 -2.5625q6.015625 -0.125 8.765625 -0.953125q2.765625 -0.84375 3.84375 -3.265625q1.09375 -2.4375 1.09375 -7.8125076l0 -73.09375l-2.8125 0q-6.15625 0 -10.453125 2.703125q-4.28125 2.6875 -7.359375 8.890621q-3.0625 6.203125 -5.234375 16.953125l-2.9375 0q0.375 -3.703125 0.375 -9.71875q0 -9.609371 -0.890625 -21.765621q11.640625 0.390625 39.546875 0.390625q27.90625 0 39.421867 -0.390625z" fill-rule="nonzero"/></g></svg>